<?xml version="1.0" encoding="utf-8"?>
<!-- Generator: Adobe Illustrator 21.0.2, SVG Export Plug-In . SVG Version: 6.00 Build 0)  -->
<svg version="1.1" id="Layer_1" xmlns="http://www.w3.org/2000/svg" xmlns:xlink="http://www.w3.org/1999/xlink" x="0px" y="0px"
	 viewBox="0 0 20 20" style="enable-background:new 0 0 20 20;" xml:space="preserve">
<style type="text/css">
	.st0{fill:#fff;}
</style>
<path id="profile-icon" class="st0" d="M18,11.2c0,0.2-0.1,0.3-0.3,0.4l-1.9,0.3c-0.1,0.3-0.2,0.6-0.4,0.9c0.4,0.5,0.7,1,1.1,1.4
	c0.1,0.1,0.1,0.2,0.1,0.3c0,0.1,0,0.2-0.1,0.2c-0.3,0.3-1.7,1.9-2,1.9c-0.1,0-0.2,0-0.3-0.1l-1.4-1.1c-0.3,0.2-0.6,0.3-0.9,0.4
	c-0.1,0.6-0.1,1.3-0.3,1.9c0,0.2-0.2,0.3-0.4,0.3H8.8c-0.2,0-0.4-0.1-0.4-0.3l-0.3-1.9c-0.3-0.1-0.6-0.2-0.9-0.4l-1.5,1.1
	c-0.1,0.1-0.2,0.1-0.3,0.1c-0.1,0-0.2,0-0.3-0.1C4.7,16,4,15.3,3.5,14.7c-0.1-0.1-0.1-0.2-0.1-0.2c0-0.1,0-0.2,0.1-0.2
	c0.4-0.5,0.7-0.9,1.1-1.4c-0.2-0.3-0.3-0.7-0.4-1l-1.9-0.3c-0.2,0-0.3-0.2-0.3-0.4V8.8c0-0.2,0.1-0.3,0.3-0.4l1.9-0.3
	c0.1-0.3,0.2-0.6,0.4-1c-0.4-0.5-0.7-1-1.1-1.4C3.4,5.7,3.4,5.6,3.4,5.5c0-0.1,0-0.2,0.1-0.2c0.3-0.3,1.7-1.9,2-1.9
	c0.1,0,0.2,0,0.3,0.1l1.4,1.1c0.3-0.2,0.6-0.3,0.9-0.4c0.1-0.6,0.1-1.3,0.3-1.9C8.5,2.1,8.7,2,8.8,2h2.3c0.2,0,0.4,0.1,0.4,0.3
	l0.3,1.9c0.3,0.1,0.6,0.2,0.9,0.4l1.5-1.1c0.1-0.1,0.2-0.1,0.3-0.1c0.1,0,0.2,0,0.3,0.1C15.3,4,16,4.7,16.5,5.3
	c0.1,0.1,0.1,0.1,0.1,0.2c0,0.1,0,0.2-0.1,0.2c-0.4,0.5-0.7,0.9-1.1,1.4c0.2,0.3,0.3,0.7,0.4,1l1.9,0.3c0.2,0,0.3,0.2,0.3,0.4V11.2z
	 M10,7.3c-1.5,0-2.7,1.2-2.7,2.7s1.2,2.7,2.7,2.7s2.7-1.2,2.7-2.7S11.5,7.3,10,7.3z"/>
</svg>
