<?xml version="1.0" encoding="utf-8"?>
<!-- Generator: Adobe Illustrator 21.0.2, SVG Export Plug-In . SVG Version: 6.00 Build 0)  -->
<svg version="1.1" id="Layer_1" xmlns="http://www.w3.org/2000/svg" xmlns:xlink="http://www.w3.org/1999/xlink" x="0px" y="0px"
	 viewBox="0 0 20 20" style="enable-background:new 0 0 20 20;" xml:space="preserve">
<style type="text/css">
	.st0{fill:#fff;}
</style>
<g id="transaction_x5F_icon">
	<path id="body" class="st0" d="M16.7,4H3.3C2.6,4,2,4.6,2,5.3v9.5C2,15.4,2.6,16,3.3,16h13.3c0.7,0,1.3-0.6,1.3-1.3V5.3
		C18,4.6,17.4,4,16.7,4z M16.9,14.8c0,0.1-0.1,0.3-0.3,0.3H3.3c-0.1,0-0.3-0.1-0.3-0.3V10h13.9V14.8z M16.9,7H3.1V5.3
		C3.1,5.1,3.2,5,3.3,5h13.3c0.1,0,0.3,0.1,0.3,0.3V7z"/>
	<rect id="stroke-2" x="4.1" y="13" class="st0" width="2.1" height="1"/>
	<rect id="stroke-1" x="7.3" y="13" class="st0" width="3.2" height="1"/>
</g>
</svg>
