<?xml version="1.0" encoding="utf-8"?>
<!-- Generator: Adobe Illustrator 21.0.2, SVG Export Plug-In . SVG Version: 6.00 Build 0)  -->
<svg version="1.1" id="Layer_1" xmlns="http://www.w3.org/2000/svg" xmlns:xlink="http://www.w3.org/1999/xlink" x="0px" y="0px"
	 viewBox="0 0 20 20" style="enable-background:new 0 0 20 20;" xml:space="preserve">
<style type="text/css">
	.st0{fill:#fff;}
</style>
<g id="edit-icon">
	<path id="pencil" class="st0" d="M10.8,4.8L2,13.6V18h4.4l8.8-8.8L10.8,4.8z M5.8,16.6H4.7v-1.3H3.3v-1.1l1-1l2.5,2.5L5.8,16.6z
		 M5.6,12.8c0,0-0.1,0.1-0.2,0.1c-0.1,0-0.2-0.1-0.2-0.2c0-0.1,0-0.1,0.1-0.2L11,6.7c0,0,0.1-0.1,0.2-0.1c0.1,0,0.2,0.1,0.2,0.2
		c0,0.1,0,0.1-0.1,0.2L5.6,12.8z"/>
	<path id="eraser" class="st0" d="M17.6,6.8l-1.8,1.8l-4.4-4.4l1.8-1.7c0.2-0.3,0.6-0.4,1-0.4c0.4,0,0.7,0.1,1,0.4l2.5,2.5
		c0.2,0.3,0.4,0.6,0.4,1C18,6.2,17.9,6.5,17.6,6.8z"/>
</g>
</svg>
