<?xml version="1.0" encoding="utf-8"?>
<!-- Generator: Adobe Illustrator 21.0.2, SVG Export Plug-In . SVG Version: 6.00 Build 0)  -->
<svg version="1.1" id="Layer_1" xmlns="http://www.w3.org/2000/svg" xmlns:xlink="http://www.w3.org/1999/xlink" x="0px" y="0px"
	 viewBox="0 0 20 20" style="enable-background:new 0 0 20 20;" xml:space="preserve">
<style type="text/css">
	.st0{fill:#a788c9;}
</style>
<g id="mail-icon">
	<path id="top_1_" class="st0" d="M16.5,7.7c-1.4,0.9-2.8,1.8-4.2,2.8c-0.6,0.4-1.6,1.2-2.3,1.2h0h0c-0.7,0-1.7-0.8-2.3-1.2
		C6.3,9.5,4.9,8.6,3.5,7.7C2.9,7.3,2,6.3,2,5.6C2,4.7,2.5,4,3.4,4h13.1C17.3,4,18,4.6,18,5.4C18,6.3,17.3,7.2,16.5,7.7z"/>
	<path id="bottom" class="st0" d="M18,14.6c0,0.8-0.6,1.4-1.4,1.4H3.4C2.6,16,2,15.4,2,14.6V7.9c0.3,0.3,0.6,0.5,0.9,0.7
		c1.5,1,3,1.9,4.4,2.9c0.8,0.5,1.7,1.2,2.7,1.2h0h0c1,0,1.9-0.6,2.7-1.2c1.5-1,3-2,4.4-2.9c0.3-0.2,0.6-0.5,0.9-0.7V14.6z"/>
</g>
</svg>
