<?xml version="1.0" encoding="utf-8"?>
<!-- Generator: Adobe Illustrator 21.0.2, SVG Export Plug-In . SVG Version: 6.00 Build 0)  -->
<svg version="1.1" id="Layer_1" xmlns="http://www.w3.org/2000/svg" xmlns:xlink="http://www.w3.org/1999/xlink" x="0px" y="0px"
	 viewBox="0 0 20 20" style="enable-background:new 0 0 20 20;" xml:space="preserve">
<style type="text/css">
	.st0{fill:#fff;}
</style>
<path id="phone" class="st0" d="M17.6,16.2c-0.2,0.6-0.9,0.9-1.4,1.2c-0.7,0.4-1.4,0.6-2.1,0.6c-1.1,0-2-0.4-3-0.8
	c-0.7-0.2-1.4-0.6-2-0.9c-1.9-1.2-4.3-3.5-5.5-5.5c-0.4-0.6-0.7-1.3-0.9-2C2.4,7.9,2,6.9,2,5.9c0-0.8,0.2-1.4,0.6-2.1
	c0.3-0.5,0.6-1.1,1.2-1.4C4.2,2.2,5,2,5.4,2c0.1,0,0.2,0,0.2,0c0.2,0.1,0.5,0.6,0.6,0.9c0.4,0.6,0.7,1.3,1.1,1.9
	c0.2,0.3,0.5,0.7,0.5,1c0,0.7-2.1,1.7-2.1,2.3c0,0.3,0.3,0.7,0.4,1c1.1,2.1,2.6,3.5,4.6,4.6c0.3,0.2,0.7,0.4,1,0.4
	c0.6,0,1.6-2.1,2.3-2.1c0.4,0,0.7,0.3,1,0.5c0.6,0.4,1.3,0.7,1.9,1.1c0.2,0.1,0.8,0.4,0.9,0.6c0,0.1,0,0.2,0,0.2
	C18,15,17.8,15.8,17.6,16.2z"/>
</svg>
